<svg xmlns="http://www.w3.org/2000/svg" xmlns:xlink="http://www.w3.org/1999/xlink" width="1400" height="1400" viewBox="0 0 1400 1400"><defs><clipPath id="b"><rect width="1400" height="1400"/></clipPath></defs><g id="a" clip-path="url(#b)"><path d="M4,0A4,4,0,1,1,0,4,4,4,0,0,1,4,0Z" transform="translate(1282.944 1340.426)" fill="#8338ec"/><path d="M4,0A4,4,0,1,1,0,4,4,4,0,0,1,4,0Z" transform="translate(1345.838 1195.09)" fill="#8338ec"/><path d="M4,0A4,4,0,1,1,0,4,4,4,0,0,1,4,0Z" transform="translate(1291.66 1007.529)" fill="#fb5607"/><path d="M4,0A4,4,0,1,1,0,4,4,4,0,0,1,4,0Z" transform="translate(1289.862 842.115)" fill="#8338ec"/><path d="M4,0A4,4,0,1,1,0,4,4,4,0,0,1,4,0Z" transform="translate(1293.871 767.719)" fill="#8338ec"/><path d="M4,0A4,4,0,1,1,0,4,4,4,0,0,1,4,0Z" transform="translate(1257.398 556.643)" fill="#8338ec"/><path d="M4,0A4,4,0,1,1,0,4,4,4,0,0,1,4,0Z" transform="translate(1371.882 555.149)" fill="#ff006e"/><path d="M4,0A4,4,0,1,1,0,4,4,4,0,0,1,4,0Z" transform="translate(1261.616 361.684)" fill="#ff006e"/><path d="M4,0A4,4,0,1,1,0,4,4,4,0,0,1,4,0Z" transform="translate(1273.423 199.212)" fill="#8338ec"/><path d="M4,0A4,4,0,1,1,0,4,4,4,0,0,1,4,0Z" transform="translate(1382.328 74.489)" fill="#fb5607"/><path d="M4,0A4,4,0,1,1,0,4,4,4,0,0,1,4,0Z" transform="translate(1209.034 1259.276)" fill="#ff006e"/><path d="M4,0A4,4,0,1,1,0,4,4,4,0,0,1,4,0Z" transform="translate(1122.261 1166.381)" fill="#3a86ff"/><path d="M4,0A4,4,0,1,1,0,4,4,4,0,0,1,4,0Z" transform="translate(1134.754 1028.448)" fill="#ff006e"/><path d="M4,0A4,4,0,1,1,0,4,4,4,0,0,1,4,0Z" transform="translate(1190.677 910.677)" fill="#ff006e"/><path d="M4,0A4,4,0,1,1,0,4,4,4,0,0,1,4,0Z" transform="translate(1240.911 829.696)" fill="#3a86ff"/><path d="M4,0A4,4,0,1,1,0,4,4,4,0,0,1,4,0Z" transform="translate(1246.392 612.759)" fill="#8338ec"/><path d="M4,0A4,4,0,1,1,0,4,4,4,0,0,1,4,0Z" transform="translate(1122.096 473.878)" fill="#ff006e"/><path d="M4,0A4,4,0,1,1,0,4,4,4,0,0,1,4,0Z" transform="translate(1122.906 326.724)" fill="#3a86ff"/><path d="M4,0A4,4,0,1,1,0,4,4,4,0,0,1,4,0Z" transform="translate(1122.563 138.281)" fill="#8338ec"/><path d="M4,0A4,4,0,1,1,0,4,4,4,0,0,1,4,0Z" transform="translate(1189.711 18.611)" fill="#8338ec"/><path d="M4,0A4,4,0,1,1,0,4,4,4,0,0,1,4,0Z" transform="translate(1026.075 1312.321)" fill="#fb5607"/><path d="M4,0A4,4,0,1,1,0,4,4,4,0,0,1,4,0Z" transform="translate(1095.849 1213.778)" fill="#8338ec"/><path d="M4,0A4,4,0,1,1,0,4,4,4,0,0,1,4,0Z" transform="translate(981.333 1044.018)" fill="#3a86ff"/><path d="M4,0A4,4,0,1,1,0,4,4,4,0,0,1,4,0Z" transform="translate(1083.137 863.446)" fill="#ff006e"/><path d="M4,0A4,4,0,1,1,0,4,4,4,0,0,1,4,0Z" transform="translate(1097.689 787.511)" fill="#ff006e"/><path d="M4,0A4,4,0,1,1,0,4,4,4,0,0,1,4,0Z" transform="translate(976.446 632.637)" fill="#3a86ff"/><path d="M4,0A4,4,0,1,1,0,4,4,4,0,0,1,4,0Z" transform="translate(1115.081 519.879)" fill="#fb5607"/><path d="M4,0A4,4,0,1,1,0,4,4,4,0,0,1,4,0Z" transform="translate(1102.987 292.683)" fill="#fb5607"/><path d="M4,0A4,4,0,1,1,0,4,4,4,0,0,1,4,0Z" transform="translate(988.666 183.963)" fill="#8338ec"/><path d="M4,0A4,4,0,1,1,0,4,4,4,0,0,1,4,0Z" transform="translate(1061.484 104.554)" fill="#ff006e"/><path d="M4,0A4,4,0,1,1,0,4,4,4,0,0,1,4,0Z" transform="translate(967.602 1263.939)" fill="#8338ec"/><path d="M4,0A4,4,0,1,1,0,4,4,4,0,0,1,4,0Z" transform="translate(959.918 1216.563)" fill="#ff006e"/><path d="M4,0A4,4,0,1,1,0,4,4,4,0,0,1,4,0Z" transform="translate(886.581 1084.512)" fill="#8338ec"/><path d="M4,0A4,4,0,1,1,0,4,4,4,0,0,1,4,0Z" transform="translate(885.77 962.088)" fill="#8338ec"/><path d="M4,0A4,4,0,1,1,0,4,4,4,0,0,1,4,0Z" transform="translate(922.562 774.055)" fill="#8338ec"/><path d="M4,0A4,4,0,1,1,0,4,4,4,0,0,1,4,0Z" transform="translate(939.418 556.306)" fill="#ff006e"/><path d="M4,0A4,4,0,1,1,0,4,4,4,0,0,1,4,0Z" transform="translate(888.872 435.214)" fill="#fb5607"/><path d="M4,0A4,4,0,1,1,0,4,4,4,0,0,1,4,0Z" transform="translate(946.025 353.204)" fill="#fb5607"/><path d="M4,0A4,4,0,1,1,0,4,4,4,0,0,1,4,0Z" transform="translate(884.241 269.451)" fill="#3a86ff"/><path d="M4,0A4,4,0,1,1,0,4,4,4,0,0,1,4,0Z" transform="translate(937.957 55.411)" fill="#3a86ff"/><path d="M4,0A4,4,0,1,1,0,4,4,4,0,0,1,4,0Z" transform="translate(768.935 1289.861)" fill="#8338ec"/><path d="M4,0A4,4,0,1,1,0,4,4,4,0,0,1,4,0Z" transform="translate(815.856 1130.006)" fill="#8338ec"/><path d="M4,0A4,4,0,1,1,0,4,4,4,0,0,1,4,0Z" transform="translate(753.821 1026.581)" fill="#8338ec"/><path d="M4,0A4,4,0,1,1,0,4,4,4,0,0,1,4,0Z" transform="translate(727.198 936.422)" fill="#fb5607"/><path d="M4,0A4,4,0,1,1,0,4,4,4,0,0,1,4,0Z" transform="translate(720.299 788.945)" fill="#3a86ff"/><path d="M4,0A4,4,0,1,1,0,4,4,4,0,0,1,4,0Z" transform="translate(754.982 641.267)" fill="#8338ec"/><path d="M4,0A4,4,0,1,1,0,4,4,4,0,0,1,4,0Z" transform="translate(723.156 522.366)" fill="#3a86ff"/><path d="M4,0A4,4,0,1,1,0,4,4,4,0,0,1,4,0Z" transform="translate(832.694 364.798)" fill="#ff006e"/><path d="M4,0A4,4,0,1,1,0,4,4,4,0,0,1,4,0Z" transform="translate(766.952 170.901)" fill="#8338ec"/><path d="M4,0A4,4,0,1,1,0,4,4,4,0,0,1,4,0Z" transform="translate(756.937 30.543)" fill="#3a86ff"/><path d="M4,0A4,4,0,1,1,0,4,4,4,0,0,1,4,0Z" transform="translate(622.433 1297.973)" fill="#8338ec"/><path d="M4,0A4,4,0,1,1,0,4,4,4,0,0,1,4,0Z" transform="translate(675.278 1134.406)" fill="#8338ec"/><path d="M4,0A4,4,0,1,1,0,4,4,4,0,0,1,4,0Z" transform="translate(559.624 1068.679)" fill="#8338ec"/><path d="M4,0A4,4,0,1,1,0,4,4,4,0,0,1,4,0Z" transform="translate(606.157 973.26)" fill="#3a86ff"/><path d="M4,0A4,4,0,1,1,0,4,4,4,0,0,1,4,0Z" transform="translate(640.048 828.921)" fill="#ff006e"/><path d="M4,0A4,4,0,1,1,0,4,4,4,0,0,1,4,0Z" transform="translate(630.361 659.596)" fill="#3a86ff"/><path d="M4,0A4,4,0,1,1,0,4,4,4,0,0,1,4,0Z" transform="translate(634.797 435.614)" fill="#8338ec"/><path d="M4,0A4,4,0,1,1,0,4,4,4,0,0,1,4,0Z" transform="translate(688.347 306.79)" fill="#ff006e"/><path d="M4,0A4,4,0,1,1,0,4,4,4,0,0,1,4,0Z" transform="translate(665.056 256.252)" fill="#3a86ff"/><path d="M4,0A4,4,0,1,1,0,4,4,4,0,0,1,4,0Z" transform="translate(585.994 90.092)" fill="#fb5607"/><path d="M4,0A4,4,0,1,1,0,4,4,4,0,0,1,4,0Z" transform="translate(492.625 1381.597)" fill="#fb5607"/><path d="M4,0A4,4,0,1,1,0,4,4,4,0,0,1,4,0Z" transform="translate(452.618 1176.405)" fill="#fb5607"/><path d="M4,0A4,4,0,1,1,0,4,4,4,0,0,1,4,0Z" transform="translate(457.401 1043.377)" fill="#8338ec"/><path d="M4,0A4,4,0,1,1,0,4,4,4,0,0,1,4,0Z" transform="translate(466.774 888.118)" fill="#8338ec"/><path d="M4,0A4,4,0,1,1,0,4,4,4,0,0,1,4,0Z" transform="translate(514.49 739.81)" fill="#fb5607"/><path d="M4,0A4,4,0,1,1,0,4,4,4,0,0,1,4,0Z" transform="translate(475.003 680.88)" fill="#fb5607"/><path d="M4,0A4,4,0,1,1,0,4,4,4,0,0,1,4,0Z" transform="translate(476.669 467.285)" fill="#fb5607"/><path d="M4,0A4,4,0,1,1,0,4,4,4,0,0,1,4,0Z" transform="translate(461.867 388.479)" fill="#8338ec"/><path d="M4,0A4,4,0,1,1,0,4,4,4,0,0,1,4,0Z" transform="translate(489.047 160.592)" fill="#fb5607"/><path d="M4,0A4,4,0,1,1,0,4,4,4,0,0,1,4,0Z" transform="translate(502.296 72.566)" fill="#8338ec"/><path d="M4,0A4,4,0,1,1,0,4,4,4,0,0,1,4,0Z" transform="translate(281.4 1274.043)" fill="#ff006e"/><path d="M4,0A4,4,0,1,1,0,4,4,4,0,0,1,4,0Z" transform="translate(302.535 1225.811)" fill="#3a86ff"/><path d="M4,0A4,4,0,1,1,0,4,4,4,0,0,1,4,0Z" transform="translate(375.939 986.187)" fill="#8338ec"/><path d="M4,0A4,4,0,1,1,0,4,4,4,0,0,1,4,0Z" transform="translate(307.593 922.122)" fill="#3a86ff"/><path d="M4,0A4,4,0,1,1,0,4,4,4,0,0,1,4,0Z" transform="translate(355.34 750.84)" fill="#fb5607"/><path d="M4,0A4,4,0,1,1,0,4,4,4,0,0,1,4,0Z" transform="translate(340.935 609.438)" fill="#3a86ff"/><path d="M4,0A4,4,0,1,1,0,4,4,4,0,0,1,4,0Z" transform="translate(330.404 494.538)" fill="#ff006e"/><path d="M4,0A4,4,0,1,1,0,4,4,4,0,0,1,4,0Z" transform="translate(324.759 372.222)" fill="#fb5607"/><path d="M4,0A4,4,0,1,1,0,4,4,4,0,0,1,4,0Z" transform="translate(318.611 148.746)" fill="#fb5607"/><path d="M4,0A4,4,0,1,1,0,4,4,4,0,0,1,4,0Z" transform="translate(366.827 111.092)" fill="#8338ec"/><path d="M4,0A4,4,0,1,1,0,4,4,4,0,0,1,4,0Z" transform="translate(162.396 1317.814)" fill="#8338ec"/><path d="M4,0A4,4,0,1,1,0,4,4,4,0,0,1,4,0Z" transform="translate(136.701 1214.521)" fill="#3a86ff"/><path d="M4,0A4,4,0,1,1,0,4,4,4,0,0,1,4,0Z" transform="translate(248.28 1026.978)" fill="#fb5607"/><path d="M4,0A4,4,0,1,1,0,4,4,4,0,0,1,4,0Z" transform="translate(211.353 915.867)" fill="#3a86ff"/><path d="M4,0A4,4,0,1,1,0,4,4,4,0,0,1,4,0Z" transform="translate(164.475 696.87)" fill="#8338ec"/><path d="M4,0A4,4,0,1,1,0,4,4,4,0,0,1,4,0Z" transform="translate(227.356 675.115)" fill="#8338ec"/><path d="M4,0A4,4,0,1,1,0,4,4,4,0,0,1,4,0Z" transform="translate(206.928 425.55)" fill="#8338ec"/><path d="M4,0A4,4,0,1,1,0,4,4,4,0,0,1,4,0Z" transform="translate(158.794 404.653)" fill="#ff006e"/><path d="M4,0A4,4,0,1,1,0,4,4,4,0,0,1,4,0Z" transform="translate(156.894 164.411)" fill="#8338ec"/><path d="M4,0A4,4,0,1,1,0,4,4,4,0,0,1,4,0Z" transform="translate(201.912 89.144)" fill="#8338ec"/><path d="M4,0A4,4,0,1,1,0,4,4,4,0,0,1,4,0Z" transform="translate(18.013 1268.758)" fill="#3a86ff"/><path d="M4,0A4,4,0,1,1,0,4,4,4,0,0,1,4,0Z" transform="translate(3.627 1151.051)" fill="#8338ec"/><path d="M4,0A4,4,0,1,1,0,4,4,4,0,0,1,4,0Z" transform="translate(16.48 997.932)" fill="#ff006e"/><path d="M4,0A4,4,0,1,1,0,4,4,4,0,0,1,4,0Z" transform="translate(89.981 970.417)" fill="#3a86ff"/><path d="M4,0A4,4,0,1,1,0,4,4,4,0,0,1,4,0Z" transform="translate(26.221 703.488)" fill="#ff006e"/><path d="M4,0A4,4,0,1,1,0,4,4,4,0,0,1,4,0Z" transform="translate(64.123 641.513)" fill="#3a86ff"/><path d="M4,0A4,4,0,1,1,0,4,4,4,0,0,1,4,0Z" transform="translate(31.594 542.868)" fill="#fb5607"/><path d="M4,0A4,4,0,1,1,0,4,4,4,0,0,1,4,0Z" transform="translate(123.212 409.724)" fill="#fb5607"/><path d="M4,0A4,4,0,1,1,0,4,4,4,0,0,1,4,0Z" transform="translate(107.924 219.825)" fill="#ff006e"/><path d="M4,0A4,4,0,1,1,0,4,4,4,0,0,1,4,0Z" transform="translate(14.858 130.026)" fill="#8338ec"/></g></svg>
